<svg xmlns="http://www.w3.org/2000/svg" xmlns:xlink="http://www.w3.org/1999/xlink" xml:space="preserve" width="128" height="128" viewBox="0 0 1.333 1.333"><defs><linearGradient id="a"><stop offset="0" style="stop-color:#8a4bd2;stop-opacity:1"/><stop offset="1" style="stop-color:#a179d2;stop-opacity:1"/></linearGradient><linearGradient xlink:href="#a" id="b" x1=".667" x2=".667" y1=".003" y2="1.33" gradientUnits="userSpaceOnUse"/></defs><g style="display:inline"><rect width="1.333" height="1.333" rx=".042" ry=".042" style="display:inline;opacity:1;fill:url(#b);fill-opacity:1;fill-rule:nonzero;stroke-width:.0104167"/><g style="fill:#50219c;fill-opacity:1" transform="rotate(-45 .667 .667)"><circle cx=".667" cy="1.146" r=".125" style="display:inline;opacity:1;fill:#fff;fill-opacity:1;stroke-width:.00828022"/><circle cx="1.146" cy=".667" r=".125" style="display:inline;opacity:1;fill:#fff;fill-opacity:1;stroke-width:.00828023"/><rect width=".833" height=".833" x=".25" y=".25" rx=".092" style="opacity:1;fill:#fff;fill-opacity:1;stroke-width:.0115191"/></g></g><path d="M.582.28S.515.349.48.394A1.343 1.343 0 0 0 .377.55a.408.408 0 0 0-.044.165.333.333 0 1 0 .667 0A.523.523 0 0 0 .931.51.96.96 0 0 0 .818.355V.353L.734.447.63.333zM.586.52l.142.186L.82.609a.219.219 0 0 1 .04.105c0 .112-.077.193-.185.193A.2.2 0 0 1 .478.703c0-.077.073-.155.108-.182z" style="display:inline;opacity:1;fill:#7a41d6;fill-opacity:1;stroke-width:.01172"/></svg>